HIERARCHY
ROOT Hips
{
	OFFSET 0.00000 0.00000 0.00000
	CHANNELS 6 Xposition Yposition Zposition Zrotation Yrotation Xrotation 
	JOINT LHipJoint
	{
		OFFSET 0 0 0
		CHANNELS 3 Zrotation Yrotation Xrotation
		JOINT LeftHip
		{
			OFFSET 1.84395 -1.68683 0.74144
			CHANNELS 3 Zrotation Yrotation Xrotation
			JOINT LeftKnee
			{
				OFFSET 2.27037 -6.23779 0.00000
				CHANNELS 3 Zrotation Yrotation Xrotation
				JOINT LeftAnkle
				{
					OFFSET 2.56918 -7.05877 0.00000
					CHANNELS 3 Zrotation Yrotation Xrotation
					JOINT LeftToe
					{
						OFFSET 0.22276 -0.61202 1.71784
						CHANNELS 3 Zrotation Yrotation Xrotation
						End Site
						{
							OFFSET 0.00000 -0.00000 0.91613
						}
					}
				}
			}
		}
	}
	JOINT RHipJoint
	{
		OFFSET 0 0 0
		CHANNELS 3 Zrotation Yrotation Xrotation
		JOINT RightHip
		{
			OFFSET -1.76833 -1.68684 0.74144
			CHANNELS 3 Zrotation Yrotation Xrotation
			JOINT RightKnee
			{
				OFFSET -2.49360 -6.85110 0.00000
				CHANNELS 3 Zrotation Yrotation Xrotation
				JOINT RightAnkle
				{
					OFFSET -2.55538 -7.02085 0.00000
					CHANNELS 3 Zrotation Yrotation Xrotation
					JOINT RightToe
					{
						OFFSET -0.21516 -0.59115 1.68050
						CHANNELS 3 Zrotation Yrotation Xrotation
						End Site
						{
							OFFSET -0.00000 -0.00000 0.89604
						}
					}
				}
			}
		}
	}
	JOINT lowerback
	{
		OFFSET 0 0 0
		CHANNELS 3 Zrotation Yrotation Xrotation
		JOINT Chest
		{
			OFFSET 0.06382 1.72312 -0.19613
			CHANNELS 3 Zrotation Yrotation Xrotation
			JOINT Chest2
			{
				OFFSET -0.00055 1.73507 0.23859
				CHANNELS 3 Zrotation Yrotation Xrotation
				JOINT lowerneck
				{
					OFFSET 0 0 0
					CHANNELS 3 Zrotation Yrotation Xrotation
					JOINT Neck
					{
						OFFSET 0.03638 1.65562 0.09633
						CHANNELS 3 Zrotation Yrotation Xrotation
						JOINT Head
						{
							OFFSET 0.06388 1.62807 -0.32386
							CHANNELS 3 Zrotation Yrotation Xrotation
							End Site
							{
								OFFSET 0.00995 1.67644 -0.12021
							}
						}
					}
				}
				JOINT LeftCollar
				{
					OFFSET 0 0 0
					CHANNELS 3 Zrotation Yrotation Xrotation
					JOINT LeftShoulder
					{
						OFFSET 3.09648 1.42991 0.28122
CHANNELS 3 Zrotation Xrotation Yrotation
						JOINT LeftElbow
						{
OFFSET 0 -5.118780 -0.000000
CHANNELS 3 Zrotation Xrotation Yrotation
							JOINT LeftWrist
							{
OFFSET 0 -3.599710 0.000000
CHANNELS 3 Zrotation Xrotation Yrotation
								JOINT lhand
								{
									OFFSET 0 0 0
CHANNELS 3 Zrotation Xrotation Yrotation
									JOINT LFingers
									{
OFFSET 0 -0.628770 0.000000
CHANNELS 3 Zrotation Xrotation Yrotation
										End Site
										{
OFFSET 0 -0.506930 0.000000
										}
									}
								}
								JOINT LThumb
								{
OFFSET 0 0.000000 0.000000
CHANNELS 3 Zrotation Xrotation Yrotation
									End Site
									{
OFFSET 0 -0.514670 0.514670
									}
								}
							}
						}
					}
				}
				JOINT RightCollar
				{
					OFFSET 0 0 0
					CHANNELS 3 Zrotation Yrotation Xrotation
					JOINT RightShoulder
					{
						OFFSET -3.33565 1.14597 0.05047
CHANNELS 3 Zrotation Xrotation Yrotation
						JOINT RightElbow
						{
OFFSET 0 -5.490200 0.000000
CHANNELS 3 Zrotation Xrotation Yrotation
							JOINT RightWrist
							{
OFFSET 0 -3.206590 -0.000000
CHANNELS 3 Zrotation Xrotation Yrotation
								JOINT rhand
								{
									OFFSET 0 0 0
CHANNELS 3 Zrotation Xrotation Yrotation
									JOINT RFingers
									{
OFFSET 0 -0.691880 0.000000
CHANNELS 3 Zrotation Xrotation Yrotation
										End Site
										{
OFFSET 0 -0.557810 0.000000
										}
									}
								}
								JOINT RThumb
								{
OFFSET 0 0.000000 0.000000
CHANNELS 3 Zrotation Xrotation Yrotation
									End Site
									{
OFFSET 0 -0.566330 0.566330
									}
								}
							}
						}
					}
				}
			}
		}
	}
}
MOTION
Frames: 11
Frame Time: 0.008333333333333333
0.848062 17.582602 8.860580 -8.786593 2.252896 10.721535 0.000000 0.000000 0.000000 -15.251082 -40.964114 20.073119 0.045604 -1.378126 -3.789963 -5.076168 40.246725 -36.887884 0.064057 1.631447 4.488070 0.000000 0.000000 0.000000 27.285680 25.281157 4.143386 -0.042415 -1.329733 3.656475 0.612122 -19.278129 -21.613857 -0.018298 -0.873198 2.399970 6.812948 -0.121652 1.502875 2.537431 0.269667 -4.711570 -1.184462 -0.110824 -5.746415 -1.835212 -3.434380 -9.431069 3.955306 -6.957715 46.447368 1.030412 -2.583996 20.017558 0.000000 0.000000 0.000000 -5.533694 -23.919249 -101.467793 155.012919 -36.190646 111.717672 55.526925 -30.667609 14.349350 0.000000 0.000000 0.000000 -7.125000 0.000000 0.000000 17.815905 6.569835 16.482324 0.000000 0.000000 0.000000 6.354994 -30.910431 101.758566 -157.207174 -33.861436 -112.977496 -78.432731 63.100010 50.843988 0.000000 0.000000 0.000000 7.125000 0.000000 0.000000 -157.704479 -68.685356 -167.097253
0.854038 17.593939 8.861671 -8.662949 2.295898 10.908205 0.000000 0.000000 0.000000 -15.546874 -41.477833 20.227555 0.045498 -1.376565 -3.785701 -5.144735 40.556355 -37.394502 0.073415 1.747773 4.808979 0.000000 0.000000 0.000000 27.080182 25.480956 4.074036 -0.039894 -1.289219 3.544976 0.653068 -19.507425 -21.587651 -0.017828 -0.862652 2.371089 6.719375 -0.044677 1.516320 2.528900 0.398915 -5.184561 -1.144704 -0.064632 -6.248924 -1.969299 -3.558353 -9.711968 4.156433 -7.139478 45.610684 1.099974 -2.657929 19.545395 0.000000 0.000000 0.000000 -5.698724 -24.991882 -101.087279 155.784915 -35.390717 112.169209 53.285474 -19.370946 7.866104 0.000000 0.000000 0.000000 -7.125000 0.000000 0.000000 18.280317 17.329806 12.668583 0.000000 0.000000 0.000000 6.671317 -31.667589 102.448342 -157.345131 -33.709252 -113.054172 -79.206259 64.126735 50.146310 0.000000 0.000000 0.000000 7.125000 0.000000 0.000000 -156.599146 -68.244528 -166.662130
0.859899 17.594983 8.867445 -8.671825 2.485840 10.488094 0.000000 0.000000 0.000000 -15.554944 -40.808258 20.177982 0.043527 -1.346227 -3.701898 -5.132625 40.186251 -36.375942 0.046613 1.391014 3.825558 0.000000 0.000000 0.000000 27.239241 24.996794 4.366372 -0.041536 -1.315691 3.617920 0.644066 -19.414387 -21.512129 -0.017426 -0.849929 2.335970 6.770902 -0.096400 1.894093 2.557082 0.392995 -5.560837 -1.138073 -0.092514 -6.873132 -1.898157 -3.637964 -9.391641 4.241950 -7.247249 44.673948 1.098622 -2.699801 18.832755 0.000000 0.000000 0.000000 -5.794633 -25.390444 -101.029154 155.862763 -35.309054 112.214251 52.715438 -18.661186 7.542735 0.000000 0.000000 0.000000 -7.125000 0.000000 0.000000 18.006754 17.966086 12.192534 0.000000 0.000000 0.000000 7.068668 -31.869449 102.747929 -157.424182 -33.621746 -113.097977 -78.104656 62.820347 49.747579 0.000000 0.000000 0.000000 7.125000 0.000000 0.000000 -155.149101 -69.145954 -165.299209
0.863039 17.585438 8.868109 -8.675461 2.539601 9.800979 0.000000 0.000000 0.000000 -15.745572 -39.877650 20.476186 0.044077 -1.354295 -3.724262 -5.108985 39.767630 -35.248478 0.027118 1.060938 2.916652 0.000000 0.000000 0.000000 27.455338 24.342974 4.857531 -0.044104 -1.355093 3.726326 0.608299 -19.110774 -21.343856 -0.018425 -0.876079 2.407930 6.749540 -0.089128 2.189742 2.597613 0.423967 -5.430901 -1.087461 -0.073176 -6.903051 -1.887751 -3.685415 -9.068747 4.469037 -7.350673 43.873501 1.180163 -2.729867 18.252847 0.000000 0.000000 0.000000 -5.936803 -25.442123 -100.626213 155.617557 -35.566030 112.072083 51.399256 -17.390166 7.384742 0.000000 0.000000 0.000000 -7.125000 0.000000 0.000000 17.200720 18.510533 11.372923 0.000000 0.000000 0.000000 6.997830 -31.849805 102.521418 -157.440836 -33.603235 -113.107232 -77.002801 61.333859 49.244060 0.000000 0.000000 0.000000 7.125000 0.000000 0.000000 -153.342948 -70.073406 -163.635580
0.860077 17.572292 8.845578 -8.869678 2.486403 9.241666 0.000000 0.000000 0.000000 -14.952811 -38.274282 19.581926 0.037532 -1.249698 -3.436238 -4.855927 38.667951 -33.479754 0.008064 0.578534 1.589758 0.000000 0.000000 0.000000 27.744421 23.688241 4.736234 -0.061254 -1.596801 4.392556 0.532836 -18.528938 -21.124962 -0.008493 -0.594298 1.633045 6.884286 -0.104896 2.190121 2.653136 0.362715 -4.632446 -1.109234 -0.071497 -6.052881 -2.397347 -3.789843 -9.022719 5.015021 -7.570195 43.457061 1.483973 -2.841518 18.064732 0.000000 0.000000 0.000000 -5.703586 -25.576863 -100.828429 155.672120 -35.509017 112.103810 51.899772 -19.401066 8.309062 0.000000 0.000000 0.000000 -7.125000 0.000000 0.000000 17.277811 17.007284 12.032216 0.000000 0.000000 0.000000 6.734796 -31.993776 102.504331 -157.492433 -33.545910 -113.135800 -77.446486 61.594613 48.690543 0.000000 0.000000 0.000000 7.125000 0.000000 0.000000 -152.321661 -69.848183 -163.113159
0.852362 17.569719 8.794735 -9.022755 2.401059 9.194924 0.000000 0.000000 0.000000 -13.823722 -37.175595 18.137256 0.031522 -1.145228 -3.148577 -4.658876 37.796343 -32.089833 0.000941 0.176560 0.485131 0.000000 0.000000 0.000000 27.809624 23.724330 4.200284 -0.078536 -1.807479 4.973887 0.498146 -18.283423 -21.074572 -0.008117 -0.575204 1.580702 6.952940 -0.112798 2.135636 2.668752 0.286523 -3.624049 -1.136821 -0.063429 -4.957465 -2.369541 -3.837140 -9.100710 4.645211 -7.544017 44.169235 1.321382 -2.861365 18.503140 0.000000 0.000000 0.000000 -5.638325 -25.053614 -101.160561 155.713715 -35.465543 112.127960 52.659661 -19.532802 8.094605 0.000000 0.000000 0.000000 -7.125000 0.000000 0.000000 17.819497 17.139407 12.394773 0.000000 0.000000 0.000000 6.383106 -31.728410 102.384107 -157.396642 -33.652233 -113.082704 -77.768506 62.156172 48.691274 0.000000 0.000000 0.000000 7.125000 0.000000 0.000000 -152.538770 -69.603457 -163.399035
0.848603 17.576451 8.736910 -8.911006 2.349115 9.689955 0.000000 0.000000 0.000000 -13.343020 -37.487784 17.217602 0.030876 -1.133421 -3.116008 -4.717153 37.902259 -31.995724 0.001054 0.208569 0.572972 0.000000 0.000000 0.000000 27.368210 24.184911 3.449997 -0.081394 -1.840458 5.065039 0.506694 -18.340409 -21.080623 -0.014342 -0.772742 2.123635 6.737436 -0.249631 1.790975 2.654218 0.007382 -2.771346 -1.025491 -0.150562 -3.882965 -2.350261 -3.654349 -8.542559 4.386738 -7.239661 45.335570 1.282919 -2.768087 19.069414 0.000000 0.000000 0.000000 -5.497727 -23.978746 -101.500752 155.185229 -36.013986 111.819204 55.378646 -29.581924 13.548082 0.000000 0.000000 0.000000 -7.125000 0.000000 0.000000 17.960208 7.874007 16.163432 0.000000 0.000000 0.000000 5.888417 -32.200906 103.098104 -157.227987 -33.838508 -112.989080 -81.837097 66.543034 48.803526 0.000000 0.000000 0.000000 7.125000 0.000000 0.000000 -155.363970 -66.431274 -166.932253
0.847465 17.575736 8.672822 -8.974225 2.270730 10.237173 0.000000 0.000000 0.000000 -13.014454 -38.511489 16.848549 0.030972 -1.135605 -3.122007 -4.838830 38.463621 -32.940222 0.009286 0.618271 1.699028 0.000000 0.000000 0.000000 27.150175 24.780156 2.840730 -0.077584 -1.796676 4.944005 0.540439 -18.564235 -21.103156 -0.012790 -0.731084 2.009016 6.775630 -0.305178 1.903859 2.688842 -0.088439 -2.213748 -1.010548 -0.175103 -3.371470 -2.239111 -3.480030 -8.222061 4.137953 -6.934615 46.084961 1.216993 -2.657155 19.442055 0.000000 0.000000 0.000000 -5.461543 -22.993068 -101.118290 154.909546 -36.296110 111.656549 55.627400 -33.356596 16.049990 0.000000 0.000000 0.000000 -7.125000 0.000000 0.000000 17.408392 3.990677 16.959346 0.000000 0.000000 0.000000 5.619232 -31.720251 102.690667 -156.916323 -34.180121 -112.814764 -81.345312 65.962343 49.304259 0.000000 0.000000 0.000000 7.125000 0.000000 0.000000 -156.061334 -66.742595 -167.154204
0.844181 17.588994 8.619261 -8.929328 2.204961 10.812973 0.000000 0.000000 0.000000 -12.842948 -39.597672 16.581922 0.032163 -1.157858 -3.183262 -4.909414 38.985029 -34.115963 0.032020 1.151477 3.165744 0.000000 0.000000 0.000000 26.797389 25.432870 2.365351 -0.066831 -1.667914 4.588737 0.601871 -18.914926 -21.049062 -0.020644 -0.927581 2.549480 6.694406 -0.263983 2.224227 2.678343 -0.005873 -2.228067 -0.979004 -0.137422 -3.561847 -2.346057 -3.475415 -8.109042 4.356539 -6.981504 45.975133 1.336527 -2.670457 19.360219 0.000000 0.000000 0.000000 -5.443763 -22.910452 -101.005172 155.126257 -36.074098 111.784310 54.850443 -33.156221 15.765287 0.000000 0.000000 0.000000 -7.125000 0.000000 0.000000 17.046818 4.796562 16.302762 0.000000 0.000000 0.000000 5.391771 -32.024863 103.110455 -156.834967 -34.268808 -112.768996 -81.890504 66.322257 48.362323 0.000000 0.000000 0.000000 7.125000 0.000000 0.000000 -154.546437 -66.445671 -166.467534
0.841765 17.600751 8.592436 -8.977796 2.162460 11.011045 0.000000 0.000000 0.000000 -12.661103 -39.968304 16.457340 0.033365 -1.179607 -3.243195 -4.968677 39.213606 -34.436465 0.041695 1.318373 3.625382 0.000000 0.000000 0.000000 26.825317 25.944088 2.488204 -0.055610 -1.521843 4.185910 0.670820 -19.342014 -21.066623 -0.026647 -1.053584 2.896326 6.768161 -0.205528 2.833235 2.682817 0.160740 -2.675977 -1.018904 -0.085933 -4.365744 -2.176740 -3.521239 -8.445665 4.242723 -7.047019 45.904504 1.229539 -2.673152 19.394618 0.000000 0.000000 0.000000 -5.326358 -23.509855 -102.040803 154.941821 -36.263242 111.675659 56.716578 -35.837638 17.113679 0.000000 0.000000 0.000000 -7.125000 0.000000 0.000000 17.727853 1.852908 18.038442 0.000000 0.000000 0.000000 5.650937 -32.302311 103.711761 -157.063204 -34.019656 -112.897107 -83.131762 68.049949 48.148989 0.000000 0.000000 0.000000 7.125000 0.000000 0.000000 -154.936741 -65.477248 -167.240286
0.841551 17.605400 8.592950 -8.903061 2.153833 10.793695 0.000000 0.000000 0.000000 -13.333307 -40.419128 17.301116 0.034584 -1.201153 -3.302387 -5.077247 39.668370 -35.144135 0.051152 1.459118 4.013175 0.000000 0.000000 0.000000 26.860237 25.776407 2.835931 -0.049703 -1.438543 3.956268 0.694768 -19.416634 -20.932096 -0.025726 -1.035978 2.847807 6.671409 -0.165495 3.311740 2.763848 0.291476 -3.209735 -0.883905 -0.047412 -5.192040 -2.422180 -3.578716 -8.831098 4.515987 -7.177496 45.643540 1.372967 -2.725559 19.370905 0.000000 0.000000 0.000000 -5.694031 -24.314015 -101.342016 155.742561 -35.435116 112.144603 53.849604 -20.503852 8.571496 0.000000 0.000000 0.000000 -7.125000 0.000000 0.000000 18.435991 16.086916 13.301736 0.000000 0.000000 0.000000 5.709238 -32.607813 103.990939 -157.287131 -33.773267 -113.021958 -82.932071 67.617288 48.034597 0.000000 0.000000 0.000000 7.125000 0.000000 0.000000 -154.596049 -65.650822 -166.955808
